<svg xmlns="http://www.w3.org/2000/svg" width="28" height="28" viewBox="0 0 28 28" fill="none">
  <path d="M23.3503 8.16699H5.97786C5.575 8.16699 5.2487 7.84069 5.2487 7.43783C5.2487 7.03496 5.575 6.70866 5.97786 6.70866H23.4779C23.8807 6.70866 24.207 6.38236 24.207 5.97949C24.207 4.77135 23.2277 3.79199 22.0195 3.79199H5.2487C3.6377 3.79199 2.33203 5.09766 2.33203 6.70866V21.292C2.33203 22.903 3.6377 24.2087 5.2487 24.2087H23.3503C24.6272 24.2087 25.6654 23.2275 25.6654 22.0212V10.3545C25.6654 9.14818 24.6272 8.16699 23.3503 8.16699ZM21.2904 17.6462C20.4851 17.6462 19.832 16.9931 19.832 16.1878C19.832 15.3826 20.4851 14.7295 21.2904 14.7295C22.0956 14.7295 22.7487 15.3826 22.7487 16.1878C22.7487 16.9931 22.0956 17.6462 21.2904 17.6462Z" fill="#4F46E5"/>
</svg>