<svg xmlns="http://www.w3.org/2000/svg" width="28" height="28" viewBox="0 0 28 28" fill="none">
  <path d="M24.4987 7H3.4987C2.85448 7 2.33203 7.52245 2.33203 8.16667V19.8333C2.33203 20.4776 2.85448 21 3.4987 21H24.4987C25.1429 21 25.6654 20.4776 25.6654 19.8333V8.16667C25.6654 7.52245 25.1429 7 24.4987 7ZM4.08203 19.25V16.9167C5.37083 16.9167 6.41536 17.9612 6.41536 19.25H4.08203ZM4.08203 11.0833V8.75H6.41536C6.41536 10.0388 5.37083 11.0833 4.08203 11.0833ZM13.9987 17.5C12.3876 17.5 11.082 15.9327 11.082 14C11.082 12.067 12.388 10.5 13.9987 10.5C15.6094 10.5 16.9154 12.067 16.9154 14C16.9154 15.9334 15.6091 17.5 13.9987 17.5ZM23.9154 19.25H21.582C21.582 17.9612 22.6266 16.9167 23.9154 16.9167V19.25ZM23.9154 11.0833C22.6266 11.0833 21.582 10.0388 21.582 8.75H23.9154V11.0833Z" fill="#4F46E5"/>
</svg>