<svg width="140" height="28" viewBox="0 0 140 28" fill="none" xmlns="http://www.w3.org/2000/svg">
<path d="M14 0C11.2311 0 8.52432 0.821083 6.22203 2.35942C3.91976 3.89776 2.12531 6.08425 1.06569 8.64242C0.00606543 11.2006 -0.27118 14.0155 0.269011 16.7312C0.809206 19.447 2.14259 21.9415 4.1005 23.8993C6.05844 25.8573 8.55303 27.1907 11.2688 27.731C13.9845 28.2712 16.7994 27.9939 19.3576 26.9344C21.9158 25.8746 24.1021 24.0802 25.6406 21.7779C27.1789 19.4757 28 16.7689 28 14C28 10.2869 26.5251 6.72599 23.8995 4.1005C21.2739 1.47499 17.7131 0 14 0ZM22.5999 16.046C22.5999 16.326 21.3359 16.366 21.3359 16.646C21.3359 16.926 22.586 17.306 22.586 17.692C22.586 18.1639 20.0099 18.2339 20.0099 18.706C20.0099 19.21 21.9639 19.0539 21.9639 19.6C21.9639 20.244 17.056 19.9439 17.056 20.614C17.056 20.8699 17.6841 20.976 18.4701 21.06C18.902 21.1079 18.8079 21.3199 18.5621 21.46C17.1881 22.2983 15.6096 22.7419 14 22.7419C12.3904 22.7419 10.812 22.2983 9.43798 21.46C9.19399 21.31 9.09799 21.098 9.52999 21.06C10.316 20.976 10.946 20.86 10.946 20.614C10.946 19.9439 6.03599 20.244 6.03599 19.6C6.03599 19.0539 7.99202 19.2 7.99202 18.706C7.99202 18.2339 5.41403 18.1639 5.41403 17.692C5.41403 17.306 6.66604 16.932 6.66604 16.646C6.66604 16.36 5.40002 16.328 5.40002 16.046C5.40002 15.764 6.32403 15.582 6.32403 15.382C6.32403 15.004 5.25001 15.692 5.25001 14C5.25001 11.6793 6.17192 9.45374 7.81285 7.81281C9.4538 6.17186 11.6794 5.24998 14 5.24998C16.3206 5.24998 18.5463 6.17186 20.1872 7.81281C21.8281 9.45374 22.7499 11.6793 22.7499 14C22.7499 15.692 21.6761 15 21.6761 15.382C21.6761 15.582 22.5999 15.744 22.5999 16.046Z" fill="#4F46E5"/>
<path d="M35.56 21V5.88H38.08L43.24 17.04L48.4 5.88H50.92V21H48.04V12.6L44.2 21H42.28L38.44 12.6V21H35.56ZM57.9888 12.48C56.4288 12.48 55.2288 13.656 55.2288 15.48C55.2288 17.304 56.4288 18.48 57.9888 18.48C59.5488 18.48 60.7488 17.304 60.7488 15.48C60.7488 13.656 59.5488 12.48 57.9888 12.48ZM57.9888 9.84C60.9648 9.84 63.5088 12.36 63.5088 15.48C63.5088 18.6 60.9648 21.12 57.9888 21.12C55.0128 21.12 52.4688 18.6 52.4688 15.48C52.4688 12.36 55.0128 9.84 57.9888 9.84ZM64.8175 16.44V9.96H67.5775V16.08C67.5775 17.52 68.5135 18.48 69.8575 18.48C71.2015 18.48 72.1375 17.52 72.1375 16.08V9.96H74.8975V21H72.8575L72.3775 19.92C72.1135 20.136 71.8015 20.352 71.4895 20.52C70.9375 20.832 70.1455 21.12 69.2575 21.12C66.6415 21.12 64.8175 19.32 64.8175 16.44ZM76.8241 21V9.96H78.8641L79.3441 11.04C79.6081 10.824 79.9201 10.608 80.2321 10.44C80.7841 10.152 81.5281 9.84 82.4641 9.84C85.0801 9.84 86.9041 11.64 86.9041 14.52V21H84.1441V14.88C84.1441 13.44 83.2081 12.48 81.8641 12.48C80.5201 12.48 79.5841 13.44 79.5841 14.88V21H76.8241ZM89.5534 17.16V12.48H87.8734V10.2H88.5934C89.4814 10.2 89.9134 9.768 89.9134 8.88V7.32H92.3134V9.96H94.7134V12.48H92.3134V17.04C92.3134 18 92.9134 18.6 93.8734 18.6C94.1374 18.6 94.2814 18.576 94.4014 18.552L94.5934 18.48V20.88C94.4734 20.928 94.3534 20.976 94.2094 21C93.9454 21.072 93.6334 21.12 93.2734 21.12C91.0894 21.12 89.5534 19.56 89.5534 17.16ZM95.4325 17.52H98.0725C98.1925 18.264 98.7925 18.84 99.7525 18.84C100.713 18.84 101.313 18.24 101.313 17.64C101.313 16.08 95.6725 17.016 95.6725 13.2C95.6725 11.4 97.2325 9.84 99.6325 9.84C102.297 9.84 103.689 11.28 103.953 13.2H101.313C101.193 12.72 100.593 12.12 99.7525 12.12C98.9125 12.12 98.4325 12.6 98.4325 13.2C98.4325 14.736 104.073 13.824 104.073 17.76C104.073 19.56 102.489 21.12 99.9925 21.12C97.1125 21.12 95.6485 19.704 95.4325 17.52ZM105.391 21V5.88H108.151V11.04C108.367 10.824 108.607 10.608 108.895 10.44C109.399 10.152 110.191 9.84 111.271 9.84C113.671 9.84 115.471 11.64 115.471 14.52V21H112.711V14.88C112.711 13.44 111.775 12.48 110.431 12.48C109.087 12.48 108.151 13.44 108.151 14.88V21H105.391ZM122.2 12.48C120.64 12.48 119.44 13.656 119.44 15.48C119.44 17.304 120.64 18.48 122.2 18.48C123.76 18.48 124.96 17.304 124.96 15.48C124.96 13.656 123.76 12.48 122.2 12.48ZM122.2 9.84C125.176 9.84 127.72 12.36 127.72 15.48C127.72 18.6 125.176 21.12 122.2 21.12C119.224 21.12 116.68 18.6 116.68 15.48C116.68 12.36 119.224 9.84 122.2 9.84ZM129.029 24.84V9.96H131.069L131.549 11.04C131.789 10.824 132.077 10.608 132.389 10.44C132.941 10.152 133.709 9.84 134.669 9.84C137.429 9.84 139.829 12.216 139.829 15.48C139.829 18.744 137.429 21.12 134.669 21.12C133.733 21.12 133.061 20.856 132.557 20.592C132.269 20.424 132.005 20.256 131.789 20.04V24.84H129.029ZM134.309 18.48C135.869 18.48 137.069 17.304 137.069 15.48C137.069 13.656 135.869 12.48 134.309 12.48C132.749 12.48 131.549 13.656 131.549 15.48C131.549 17.304 132.749 18.48 134.309 18.48Z" fill="#3F3F46"/>
</svg>
